<?xml version="1.0" standalone="no"?>
<!DOCTYPE svg PUBLIC "-//W3C//DTD SVG 1.1//EN" "http://www.w3.org/Graphics/SVG/1.1/DTD/svg11.dtd">
<!--Generator: Xara Designer (www.xara.com), SVG filter version: 3.0.2.3-->
<svg stroke-width="0.501" stroke-linejoin="bevel" fill-rule="evenodd" xmlns:xlink="http://www.w3.org/1999/xlink" xmlns="http://www.w3.org/2000/svg" version="1.1" overflow="visible" width="750pt" height="300pt" viewBox="0 0 750 300">
 <defs>
  <marker id="DefaultArrow2" markerUnits="strokeWidth" viewBox="0 0 1 1" markerWidth="1" markerHeight="1" overflow="visible" orient="auto">
   <!-- REF_ARROW_STRAIGHT (-2) -->
   <g transform="scale(0.0092592592)">
    <!-- 1/108 -->
    <path d="M -9 54 L -9 -54 L 117 0 z"/>
   </g>
  </marker>
  <marker id="DefaultArrow3" markerUnits="strokeWidth" viewBox="0 0 1 1" markerWidth="1" markerHeight="1" overflow="visible" orient="auto">
   <!-- REF_ARROW_ANGLED -->
   <g transform="scale(0.0092592592)">
    <path d="M -27 54 L -9 0 L -27 -54 L 135 0 z"/>
   </g>
  </marker>
  <marker id="DefaultArrow4" markerUnits="strokeWidth" viewBox="0 0 1 1" markerWidth="1" markerHeight="1" overflow="visible" orient="auto">
   <!-- REF_ARROW_ROUNDED -->
   <g transform="scale(0.0092592592)">
    <path d="M -9,0 L -9,-45 C -9,-51.708 2.808,-56.580 9,-54 L 117,-9 C 120.916,-7.369 126.000,-4.242 126,0 C 126,4.242 120.916,7.369 117,9 L 9,54 C 2.808,56.580 -9,51.708 -9,45 z"/>
   </g>
  </marker>
  <marker id="DefaultArrow5" markerUnits="strokeWidth" viewBox="0 0 1 1" markerWidth="1" markerHeight="1" overflow="visible" orient="auto">
   <!-- REF_ARROW_SPOT -->
   <g transform="scale(0.0092592592)">
    <path d="M -54, 0 C -54,29.807 -29.807,54 0,54 C 29.807,54 54,29.807 54,0 C 54,-29.807 29.807,-54 0,-54 C -29.807,-54 -54,-29.807 -54,0 z"/>
   </g>
  </marker>
  <marker id="DefaultArrow6" markerUnits="strokeWidth" viewBox="0 0 1 1" markerWidth="1" markerHeight="1" overflow="visible" orient="auto">
   <!-- REF_ARROW_DIAMOND -->
   <g transform="scale(0.0092592592)">
    <path d="M -63,0 L 0,63 L 63,0 L 0,-63 z"/>
   </g>
  </marker>
  <marker id="DefaultArrow7" markerUnits="strokeWidth" viewBox="0 0 1 1" markerWidth="1" markerHeight="1" overflow="visible" orient="auto">
   <!-- REF_ARROW_FEATHER -->
   <g transform="scale(0.0092592592)">
    <path d="M 18,-54 L 108,-54 L 63,0 L 108,54 L 18, 54 L -36,0 z"/>
   </g>
  </marker>
  <marker id="DefaultArrow8" markerUnits="strokeWidth" viewBox="0 0 1 1" markerWidth="1" markerHeight="1" overflow="visible" orient="auto">
   <!-- REF_ARROW_FEATHER2 -->
   <g transform="scale(0.0092592592)">
    <path d="M -36,0 L 18,-54 L 54,-54 L 18,-18 L 27,-18 L 63,-54 L 99,-54 L 63,-18 L 72,-18 L 108,-54 L 144,-54 L 90,0 L 144,54 L 108,54 L 72,18 L 63,18 L 99,54 L 63,54 L 27,18 L 18,18 L 54,54 L 18,54 z"/>
   </g>
  </marker>
  <marker id="DefaultArrow9" markerUnits="strokeWidth" viewBox="0 0 1 1" markerWidth="1" markerHeight="1" overflow="visible" orient="auto">
   <!-- REF_ARROW_HOLLOWDIAMOND -->
   <g transform="scale(0.0092592592)">
    <path d="M 0,45 L -45,0 L 0, -45 L 45, 0 z M 0, 63 L-63, 0 L 0, -63 L 63, 0 z"/>
   </g>
  </marker>
  <filter id="StainedFilter">
   <feBlend mode="multiply" in2="BackgroundImage" in="SourceGraphic" result="blend"/>
   <feComposite in="blend" in2="SourceAlpha" operator="in" result="comp"/>
  </filter>
  <filter id="BleachFilter">
   <feBlend mode="screen" in2="BackgroundImage" in="SourceGraphic" result="blend"/>
   <feComposite in="blend" in2="SourceAlpha" operator="in" result="comp"/>
  </filter>
  <filter id="InvertTransparencyBitmapFilter">
   <feComponentTransfer>
    <feFuncR type="gamma" amplitude="1.055" exponent=".416666666" offset="-0.055"/>
    <feFuncG type="gamma" amplitude="1.055" exponent=".416666666" offset="-0.055"/>
    <feFuncB type="gamma" amplitude="1.055" exponent=".416666666" offset="-0.055"/>
   </feComponentTransfer>
   <feComponentTransfer>
    <feFuncR type="linear" slope="-1" intercept="1"/>
    <feFuncG type="linear" slope="-1" intercept="1"/>
    <feFuncB type="linear" slope="-1" intercept="1"/>
    <feFuncA type="linear" slope="1" intercept="0"/>
   </feComponentTransfer>
   <feComponentTransfer>
    <feFuncR type="gamma" amplitude="1" exponent="2.4" offset="0"/>
    <feFuncG type="gamma" amplitude="1" exponent="2.4" offset="0"/>
    <feFuncB type="gamma" amplitude="1" exponent="2.4" offset="0"/>
   </feComponentTransfer>
  </filter>
  <radialGradient id="RadialGradient" gradientUnits="userSpaceOnUse" cx="0" cy="0" r="37.076" gradientTransform="translate(155.692 220.794) rotate(97.9251) scale(1 1.0003)">
   <stop offset="0" stop-color="#000000"/>
   <stop offset="1" stop-color="#cccccc"/>
  </radialGradient>
  <radialGradient id="RadialGradient_1" gradientUnits="userSpaceOnUse" cx="0" cy="0" r="75.871" gradientTransform="translate(155.529 237.133) rotate(-86.3576) skewX(0.153749) scale(1 0.898024)">
   <stop offset="0" stop-color="#ffffff"/>
   <stop offset="0.1" stop-color="#fdfdfd"/>
   <stop offset="0.2" stop-color="#fafafa"/>
   <stop offset="0.3" stop-color="#f7f7f7"/>
   <stop offset="0.4" stop-color="#f3f3f3"/>
   <stop offset="0.5" stop-color="#eeeeee"/>
   <stop offset="0.6" stop-color="#e7e7e7"/>
   <stop offset="0.7" stop-color="#dddddd"/>
   <stop offset="0.8" stop-color="#cecece"/>
   <stop offset="0.9" stop-color="#b5b5b5"/>
   <stop offset="1" stop-color="#888888"/>
  </radialGradient>
 </defs>
 <g id="Document" fill="none" stroke="black" font-family="Times New Roman" font-size="16" transform="scale(1 -1)">
  <g id="Spread" transform="translate(0 -300)">
   <g id="Layer 1">
    <path d="M 0,300.026 L 0,0.028 L 749.997,0.028 L 749.997,300.026 L 0,300.026 Z" stroke-linecap="round" stroke="none" stroke-width="1.901" stroke-linejoin="miter" marker-start="none" marker-end="none" stroke-miterlimit="79.8403193612775"/>
    <path d="M 30.407,20.336 L 27.732,71.381 L 69.469,73.571 C 81.541,72.752 93.618,73.202 105.692,75.471 L 137.255,77.126 L 139.933,26.069 C 140.384,17.525 133.801,10.218 125.264,9.768 L 46.708,5.652 C 38.16,5.206 30.856,11.783 30.407,20.336 Z M 27.224,81.192 L 24.836,126.657 C 24.389,135.202 30.966,142.506 39.51,142.955 L 118.064,147.07 C 126.607,147.515 133.913,140.941 134.361,132.393 L 136.744,86.934 L 90.249,84.498 C 77.964,85.467 66.947,85.091 57.749,82.794 L 27.224,81.192 Z" stroke-linecap="round" stroke="none" stroke-width="2.181" fill="#000000" stroke-linejoin="miter" marker-start="none" marker-end="none" stroke-miterlimit="79.8403193612775"/>
    <path d="M 148.657,26.528 L 145.981,77.579 L 160.157,78.321 C 166.075,77.625 171.949,77.949 177.778,79.245 L 223.766,81.655 C 229.622,81.018 235.437,81.155 241.185,82.568 L 255.504,83.318 L 258.179,32.265 C 258.629,23.72 252.05,16.415 243.509,15.967 L 164.953,11.849 C 156.41,11.404 149.106,17.979 148.657,26.528 Z M 145.467,87.393 L 143.083,132.854 C 142.633,141.395 149.218,148.7 157.76,149.15 L 236.311,153.267 C 244.857,153.713 252.165,147.138 252.611,138.6 L 254.987,93.128 L 240.63,92.378 C 234.536,94.082 228.499,93.795 222.518,91.429 L 177.814,89.089 C 171.838,89.935 166.092,89.225 160.4,88.176 L 145.467,87.393 Z" stroke-linecap="round" stroke="none" stroke-width="2.181" fill="#000000" stroke-linejoin="miter" marker-start="none" marker-end="none" stroke-miterlimit="79.8403193612775"/>
    <path d="M 267.086,32.731 L 264.406,83.787 L 287.306,84.987 C 293.648,83.045 299.706,83.112 305.372,85.933 L 373.931,89.527 L 376.611,38.473 C 377.058,29.934 370.482,22.622 361.935,22.175 L 283.382,18.058 C 274.839,17.612 267.534,24.186 267.086,32.731 Z M 263.894,93.597 L 261.511,139.066 C 261.065,147.602 267.643,154.912 276.189,155.357 L 354.74,159.474 C 363.288,159.922 370.59,153.345 371.034,144.798 L 373.418,99.337 L 305.377,95.773 C 299.287,96.842 293.438,96.196 287.692,94.845 L 263.894,93.597 Z" stroke-linecap="round" stroke="none" stroke-width="2.181" fill="#000000" stroke-linejoin="miter" marker-start="none" marker-end="none" stroke-miterlimit="79.8403193612775"/>
    <path d="M 385.512,38.939 L 382.833,89.993 L 429.395,92.435 C 435.037,91.37 440.574,91.259 445.87,93.299 L 492.358,95.735 L 495.037,44.682 C 495.485,36.132 488.907,28.83 480.363,28.388 L 401.807,24.262 C 393.266,23.822 385.96,30.402 385.512,38.939 Z M 382.32,99.804 L 379.937,145.263 C 379.492,153.812 386.071,161.121 394.615,161.565 L 473.167,165.682 C 481.711,166.134 489.021,159.556 489.47,151.006 L 491.847,105.549 L 445.36,103.114 C 439.652,104.987 434.158,104.355 428.794,102.243 L 382.32,99.804 Z" stroke-linecap="round" stroke="none" stroke-width="2.181" fill="#000000" stroke-linejoin="miter" marker-start="none" marker-end="none" stroke-miterlimit="79.8403193612775"/>
    <path d="M 503.941,45.147 L 501.26,96.201 L 529.881,97.7 C 534.907,97.131 539.933,97.119 544.957,98.49 L 565.847,99.585 C 572.61,99.062 578.814,99.099 583.64,100.516 L 610.786,101.939 L 613.464,50.887 C 613.915,42.341 607.336,35.034 598.787,34.586 L 520.239,30.471 C 511.693,30.021 504.389,36.598 503.941,45.147 Z M 500.748,106.012 L 498.368,151.471 C 497.918,160.024 504.495,167.32 513.042,167.768 L 591.592,171.884 C 600.139,172.336 607.445,165.754 607.891,157.219 L 610.272,111.748 L 579.685,110.149 C 573.544,110.372 567.741,109.928 562.064,109.226 L 547.679,108.471 C 542.858,109.632 538.039,109.447 533.22,107.713 L 500.748,106.012 Z" stroke-linecap="round" stroke="none" stroke-width="2.181" fill="#000000" stroke-linejoin="miter" marker-start="none" marker-end="none" stroke-miterlimit="79.8403193612775"/>
    <path d="M 622.366,51.358 L 619.689,102.406 L 648.445,103.914 C 653.923,102.665 659.404,102.856 664.884,104.776 L 729.214,108.149 L 731.893,57.091 C 732.342,48.547 725.765,41.241 717.216,40.794 L 638.667,36.678 C 630.12,36.228 622.815,42.807 622.366,51.358 Z M 619.173,112.215 L 616.797,157.68 C 616.346,166.22 622.929,173.527 631.468,173.977 L 710.024,178.091 C 718.565,178.542 725.871,171.965 726.32,163.418 L 728.7,117.957 L 664.366,114.586 C 658.889,116.041 653.41,115.663 647.932,113.724 L 619.173,112.215 Z" stroke-linecap="round" stroke="none" stroke-width="2.181" fill="#000000" stroke-linejoin="miter" marker-start="none" marker-end="none" stroke-miterlimit="79.8403193612775"/>
    <path d="M 55.236,34.396 L 57.624,48.799 C 64.639,46.773 71.21,45.921 77.34,46.242 C 84.146,46.6 89.008,47.517 91.914,48.993 C 94.825,50.47 96.196,52.761 96.033,55.863 C 95.864,59.1 94.32,61.752 91.396,63.816 C 88.867,65.646 83.817,67.947 76.246,70.7 C 73.772,71.612 71.528,72.569 69.495,73.571 L 105.683,75.467 C 109.963,71.179 112.282,65.849 112.618,59.485 C 113.485,42.847 101.964,33.906 78.05,32.649 C 69.92,32.225 62.318,32.807 55.236,34.396 Z M 53.734,94.926 C 53.344,102.244 55.757,108.11 60.968,112.525 C 66.176,116.937 73.864,119.411 84.035,119.938 C 92.379,120.375 99.416,120.048 105.155,118.934 L 103.529,104.64 C 97.675,106.423 91.407,107.142 84.723,106.793 C 74.685,106.262 69.803,103.325 70.082,97.957 C 70.23,95.103 71.524,92.847 73.958,91.188 C 76.083,89.757 80.638,87.85 87.638,85.439 C 88.538,85.128 89.405,84.814 90.257,84.491 L 57.746,82.787 C 55.312,86.227 53.971,90.274 53.734,94.926 Z" stroke-linecap="round" stroke="none" fill-rule="nonzero" stroke-linejoin="round" stroke-width="0.929" fill="#ffffff" marker-start="none" marker-end="none" stroke-miterlimit="79.8403193612775"/>
    <path d="M 173.035,49.21 C 165.133,56.625 160.822,66.326 160.119,78.32 L 177.791,79.249 C 178.581,71.52 181.183,65.25 185.599,60.429 C 190.466,55.125 196.221,52.635 202.856,52.977 C 209.07,53.309 214.201,56.383 218.249,62.208 C 221.974,67.567 223.795,74.049 223.714,81.652 L 241.256,82.575 C 241.131,71.174 237.673,61.414 230.875,53.299 C 223.327,44.285 213.659,39.471 201.869,38.848 C 190.637,38.261 181.021,41.713 173.035,49.21 Z M 170.393,111.822 C 177.942,120.84 187.618,125.656 199.4,126.279 C 210.636,126.86 220.244,123.416 228.232,115.941 C 234.871,109.724 238.969,101.866 240.536,92.366 L 222.575,91.428 C 221.317,96.78 219.021,101.276 215.69,104.919 C 210.846,110.213 205.081,112.68 198.405,112.329 C 192.192,112.003 187.058,108.94 183.008,103.138 C 180.192,99.107 178.466,94.426 177.825,89.075 L 160.359,88.164 C 161.396,97.187 164.738,105.068 170.393,111.822 Z" stroke-linecap="round" stroke="none" fill-rule="nonzero" stroke-linejoin="round" stroke-width="0.929" fill="#ffffff" marker-start="none" marker-end="none" stroke-miterlimit="79.8403193612775"/>
    <path d="M 300.257,56.802 C 292.335,64.33 288.012,73.723 287.289,84.986 L 305.396,85.934 C 306.283,79.15 309.06,73.289 313.734,68.357 C 319.038,62.745 326.204,60.178 335.224,60.654 C 340.499,60.929 346.195,62.142 352.315,64.299 L 352.001,49.562 C 346.032,47.797 340.12,46.763 334.239,46.453 C 319.649,45.694 308.316,49.14 300.257,56.802 Z M 297.784,117.438 C 305.424,126.716 316.307,131.722 330.436,132.466 C 335.63,132.739 340.576,132.4 345.279,131.451 L 343.815,116.586 C 338.71,117.944 333.86,118.496 329.263,118.256 C 320.628,117.804 314.342,114.737 310.416,109.045 C 307.709,105.125 306.035,100.699 305.388,95.763 L 287.632,94.834 C 288.784,103.095 292.172,110.631 297.784,117.438 Z" stroke-linecap="round" stroke="none" fill-rule="nonzero" stroke-linejoin="round" stroke-width="0.929" fill="#ffffff" marker-start="none" marker-end="none" stroke-miterlimit="79.8403193612775"/>
    <path d="M 429.39,92.432 L 445.803,93.294 C 446.602,78.844 447.567,65.712 448.695,53.897 L 430.635,52.95 C 430.502,65.036 430.093,78.201 429.39,92.432 Z M 426.278,136.048 L 444.345,136.996 C 444.344,127.588 444.665,116.292 445.297,103.105 L 428.87,102.237 C 428.121,115.286 427.258,126.555 426.278,136.048 Z" stroke-linecap="round" stroke="none" fill-rule="nonzero" stroke-linejoin="round" stroke-width="0.929" fill="#ffffff" marker-start="none" marker-end="none" stroke-miterlimit="79.8403193612775"/>
    <path d="M 529.914,97.703 L 544.921,98.49 C 544.6,97.37 544.278,96.225 543.949,95.053 L 567.183,96.27 C 566.739,97.404 566.308,98.509 565.891,99.585 L 583.704,100.522 C 593.493,76.907 598.443,63.985 598.561,61.752 L 578.135,60.681 C 577.988,63.489 575.637,71.345 571.077,84.246 L 541.588,82.704 C 538.27,69.598 536.68,61.538 536.838,58.515 L 517.624,57.514 C 517.536,59.133 521.633,72.535 529.914,97.703 Z M 543.079,142.172 L 567.208,143.434 C 567.316,141.273 571.49,130.174 579.723,110.141 L 562.16,109.224 C 557.06,122.556 554.47,129.919 554.406,131.307 L 553.379,131.257 C 553.445,129.96 551.555,122.364 547.708,108.465 L 533.191,107.712 C 539.9,128.385 543.193,139.871 543.079,142.172 Z" stroke-linecap="round" stroke="none" fill-rule="nonzero" stroke-linejoin="round" stroke-width="0.929" fill="#ffffff" marker-start="none" marker-end="none" stroke-miterlimit="79.8403193612775"/>
    <path d="M 648.428,103.913 L 664.832,104.772 C 665.349,93.833 665.536,84.999 665.398,78.249 C 677.143,78.861 689.533,79.83 702.565,81.153 L 702.78,67.212 L 649.738,64.432 C 649.647,75.088 649.213,88.249 648.428,103.913 Z M 645.382,147.529 L 663.319,148.468 C 663.314,139.931 663.655,128.626 664.336,114.581 L 647.91,113.719 C 647.148,127.139 646.307,138.411 645.382,147.529 Z" stroke-linecap="round" fill-rule="nonzero" stroke-linejoin="round" stroke="none" stroke-width="0.929" fill="#ffffff" marker-start="none" marker-end="none" stroke-miterlimit="79.8403193612775"/>
    <g id="Group" fill-rule="nonzero" stroke-linejoin="round" stroke-linecap="round" stroke="none" stroke-width="1.571" fill="#d8dee7" stroke-miterlimit="79.8403193612775">
     <g id="Group_1">
      <path d="M 21.589,205.348 C 21.168,213.387 21.921,220.814 23.848,227.633 C 25.774,234.452 28.823,240.356 32.996,245.344 C 37.168,250.331 42.398,254.334 48.69,257.351 C 54.98,260.367 62.278,262.094 70.586,262.529 C 73.398,262.676 76.081,262.749 78.634,262.749 C 81.187,262.747 83.714,262.612 86.213,262.34 C 88.713,262.068 91.29,261.598 93.946,260.93 C 96.599,260.264 99.566,259.413 102.845,258.374 C 103.352,253.833 103.187,249.292 102.35,244.746 C 101.514,240.202 100.069,235.725 98.016,231.319 C 95.696,232.004 93.619,232.533 91.785,232.907 C 89.952,233.282 88.224,233.561 86.603,233.744 C 84.982,233.928 83.399,234.012 81.854,233.999 C 80.31,233.985 78.668,233.932 76.925,233.842 C 70.495,233.505 65.268,231.316 61.249,227.276 C 57.228,223.236 55.465,216.529 55.955,207.15 C 56.215,202.191 57.068,198.105 58.512,194.89 C 59.957,191.675 61.768,189.182 63.942,187.414 C 66.117,185.649 68.598,184.436 71.387,183.775 C 74.177,183.116 77.111,182.866 80.193,183.027 C 84.079,183.231 87.444,183.743 90.289,184.564 C 93.134,185.385 96.461,186.634 100.27,188.312 C 102.736,184.814 104.758,180.856 106.335,176.437 C 107.908,172.019 108.848,166.931 109.15,161.168 C 103.112,158.435 97.566,156.598 92.509,155.661 C 87.454,154.724 82.38,154.124 77.289,153.857 C 68.714,153.408 61.078,154.283 54.379,156.485 C 47.68,158.686 41.963,162.047 37.224,166.57 C 32.487,171.09 28.806,176.607 26.18,183.118 C 23.556,189.632 22.025,197.041 21.589,205.348 Z" marker-start="none" marker-end="none"/>
      <path d="M 305.072,170.427 C 302.837,169.505 300.165,168.559 297.059,167.59 C 293.953,166.621 290.643,165.674 287.131,164.753 C 283.618,163.829 279.998,163.069 276.268,162.469 C 272.537,161.87 268.862,161.477 265.245,161.287 C 258.413,160.929 251.821,161.121 245.466,161.863 C 239.114,162.604 233.472,164.492 228.543,167.526 C 223.616,170.559 219.582,175.117 216.441,181.199 C 213.301,187.282 211.456,195.549 210.909,205.999 L 207.833,264.682 C 210.746,265.507 213.636,266.128 216.503,266.547 C 219.369,266.965 222.143,267.245 224.821,267.386 C 227.367,267.519 230.121,267.528 233.082,267.416 C 236.044,267.302 238.948,266.985 241.798,266.462 L 244.726,210.593 C 245.147,202.554 246.775,197.131 249.609,194.323 C 252.444,191.516 256.606,190.257 262.1,190.545 C 264.378,190.664 266.117,190.822 267.315,191.019 C 268.513,191.217 269.377,191.397 269.906,191.558 L 265.915,267.726 C 268.826,268.55 271.717,269.173 274.583,269.591 C 277.45,270.011 280.223,270.29 282.901,270.43 C 285.447,270.563 288.201,270.574 291.162,270.46 C 294.125,270.347 297.03,270.029 299.879,269.506 L 305.072,170.427 Z" marker-start="none" marker-end="none"/>
      <path d="M 353.072,276.93 C 358.966,277.24 364.89,277.045 370.836,276.35 C 376.784,275.654 382.22,273.823 387.146,270.857 C 392.07,267.891 396.198,263.472 399.529,257.602 C 402.858,251.73 404.784,243.837 405.304,233.923 L 408.453,173.832 C 405.004,172.979 401.878,172.379 399.076,172.032 C 396.273,171.682 393.799,171.452 391.654,171.34 C 389.378,171.219 386.827,171.188 384.003,171.242 C 381.178,171.295 378.008,171.565 374.489,172.052 L 371.529,228.525 C 371.157,235.626 369.55,240.648 366.708,243.588 C 363.867,246.529 359.701,247.856 354.208,247.568 C 352.734,247.49 351.167,247.273 349.505,246.918 C 347.846,246.563 346.821,246.24 346.434,245.951 L 350.372,170.787 C 346.924,169.936 343.798,169.336 340.995,168.986 C 338.193,168.639 335.718,168.407 333.575,168.296 C 331.298,168.176 328.747,168.143 325.922,168.196 C 323.097,168.25 319.927,168.521 316.407,169.007 L 311.237,267.684 C 315.841,269.537 321.454,271.411 328.072,273.302 C 334.691,275.195 343.023,276.403 353.072,276.93 Z" marker-start="none" marker-end="none"/>
      <path d="M 441.06,251.112 L 411.317,249.553 C 410.507,252.198 409.939,254.687 409.616,257.021 C 409.291,259.356 409.074,261.594 408.961,263.738 C 408.849,265.881 408.834,268.097 408.915,270.386 C 408.997,272.673 409.303,275.176 409.832,277.89 L 503.283,282.788 C 504.094,280.143 504.657,277.687 504.98,275.42 C 505.3,273.153 505.516,270.948 505.629,268.804 C 505.741,266.66 505.758,264.412 505.68,262.056 C 505.602,259.7 505.297,257.166 504.769,254.451 L 475.025,252.892 L 478.974,177.528 C 475.519,176.81 472.392,176.243 469.592,175.828 C 466.792,175.413 464.254,175.144 461.976,175.025 C 459.698,174.906 457.145,174.907 454.318,175.027 C 451.491,175.147 448.387,175.388 445.01,175.747 L 441.06,251.112 Z" marker-start="none" marker-end="none"/>
      <path d="M 541.977,221.94 C 543.74,216.525 546.523,212.775 550.326,210.69 C 554.13,208.605 559.047,207.721 565.077,208.037 C 568.962,208.241 573.291,208.938 578.066,210.129 C 582.84,211.319 587.522,212.976 592.113,215.098 C 594.171,211.712 596.03,207.645 597.69,202.895 C 599.349,198.145 600.383,193.161 600.791,187.944 C 589.098,182.897 577.022,180.048 564.563,179.395 C 554.916,178.889 546.572,179.795 539.532,182.113 C 532.491,184.43 526.669,187.854 522.066,192.382 C 517.462,196.91 513.949,202.402 511.529,208.858 C 509.108,215.314 507.694,222.428 507.286,230.198 C 506.886,237.835 507.583,245.061 509.375,251.872 C 511.168,258.682 514.078,264.679 518.106,269.861 C 522.134,275.043 527.287,279.243 533.567,282.46 C 539.847,285.678 547.275,287.512 555.849,287.961 C 562.95,288.333 569.345,287.458 575.03,285.339 C 580.717,283.219 585.614,280.15 589.72,276.133 C 593.827,272.117 597.075,267.181 599.465,261.328 C 601.852,255.474 603.232,249.064 603.595,242.099 C 603.784,238.48 603.789,235.222 603.604,232.325 C 603.42,229.426 603.243,227.033 603.074,225.142 L 541.977,221.94 Z M 555.981,262.374 C 551.693,262.151 548.08,260.617 545.138,257.776 C 542.197,254.935 540.606,250.687 540.366,245.031 L 572.521,246.718 C 572.007,251.391 570.362,255.235 567.583,258.247 C 564.805,261.259 560.939,262.635 555.981,262.374 Z" marker-start="none" marker-end="none"/>
      <path d="M 611.275,288.044 C 617.529,289.178 624.025,290.191 630.764,291.082 C 637.501,291.972 643.885,292.575 649.913,292.89 C 666.125,293.741 678.445,291.329 686.868,285.66 C 695.294,279.988 699.795,271.658 700.37,260.672 C 700.589,256.519 700.309,252.877 699.533,249.745 C 698.756,246.615 697.756,243.909 696.532,241.628 C 695.308,239.347 693.994,237.497 692.591,236.081 C 691.188,234.665 690.038,233.53 689.142,232.676 L 714.348,190.065 C 711.697,189.39 708.737,188.831 705.469,188.391 C 702.201,187.951 699.026,187.652 695.944,187.488 C 692.191,187.291 688.567,187.237 685.07,187.323 C 681.574,187.408 678.671,187.659 676.366,188.076 L 651.572,234.334 L 654.301,236.09 C 658.851,239.016 661.917,242.032 663.5,245.137 C 665.085,248.242 665.785,251.537 665.602,255.022 C 665.42,258.504 664.232,261.296 662.039,263.4 C 659.847,265.501 656.473,266.432 651.918,266.194 C 649.372,266.06 647.435,265.824 646.11,265.485 L 650.25,186.504 C 646.801,185.652 643.675,185.052 640.873,184.704 C 638.07,184.355 635.596,184.124 633.453,184.012 C 631.175,183.892 628.692,183.862 626,183.925 C 623.31,183.985 620.206,184.259 616.688,184.745 L 611.275,288.044 Z" marker-start="none" marker-end="none"/>
     </g>
    </g>
    <path d="M 127.404,155.941 C 127.193,159.241 141.83,162.878 160.071,164.059 C 178.312,165.243 193.299,163.519 193.511,160.221 C 193.723,156.919 179.087,153.279 160.847,152.104 C 142.6,150.918 127.617,152.642 127.404,155.941 Z" stroke-linecap="round" stroke="none" stroke-width="1.318" stroke-opacity="0.274510" fill="#000000" stroke-linejoin="miter" marker-start="none" marker-end="none" stroke-miterlimit="79.8403193612775" fill-opacity="0.274510"/>
    <path d="M 112.312,199.987 C 110.638,231.896 128.202,269.07 152.538,270.346 C 155.343,270.489 158.12,270.15 160.83,269.394 L 161.435,269.227 L 153.706,259.202 L 152.934,256.901 L 162.024,247.109 L 154.172,239.602 L 153.984,237.936 L 162.57,230.11 L 160.011,226.216 L 163.768,228.485 L 167.15,222.661 L 167.202,222.836 L 166.364,225.186 L 161.898,238.169 L 162.271,240.165 L 170.622,247.684 L 163.423,256.741 L 173.295,262.682 L 173.524,262.492 C 188.039,250.588 198.718,226.996 199.898,204.578 C 201.002,183.451 189.111,159.16 158.449,157.558 C 127.61,155.938 113.421,178.862 112.312,199.987 Z M 158.406,158.398 C 188.466,159.971 200.145,183.72 199.056,204.534 C 197.959,225.376 188.574,247.203 175.625,259.51 L 173.209,261.648 L 164.679,256.512 L 171.772,247.589 L 163.045,239.73 L 162.768,238.234 L 167.157,225.466 L 168.088,222.862 L 167.158,219.736 L 173.336,214.485 L 166.488,218.218 L 162.41,214.358 L 161.786,214.92 L 165.276,219.471 L 165.549,220.266 L 162.536,220.334 L 166.096,221.998 L 166.247,222.54 L 163.47,227.32 L 157.27,223.575 L 161.471,229.972 L 153.099,237.602 L 153.368,240 L 160.843,247.143 L 151.977,256.695 L 152.952,259.604 L 159.971,268.71 L 156.621,269.368 C 155.283,269.526 153.934,269.574 152.581,269.505 C 129.041,268.271 111.48,231.897 113.153,200.03 C 114.247,179.216 128.171,156.81 158.406,158.398 Z M 165.676,218.61 L 166.351,219.251 L 166.568,219.131 L 166.195,219.449 L 166.436,220.263 L 166.027,219.069 L 165.676,218.61 Z M 166.68,221.08 L 166.77,221.383 L 166.15,221.093 L 166.68,221.08 Z" stroke-width="0.589" stroke="none" fill-rule="evenodd" marker-start="none" marker-end="none" stroke-miterlimit="79.8403193612775" fill="url(#RadialGradient)"/>
    <path d="M 112.735,200.009 C 111.061,231.898 128.621,268.671 152.559,269.927 C 155.316,270.066 158.049,269.732 160.719,268.989 L 153.33,259.404 L 152.455,256.798 L 161.434,247.127 L 153.771,239.801 L 153.541,237.769 L 162.022,230.042 L 158.642,224.896 L 163.621,227.903 L 166.701,222.599 L 166.452,221.7 L 164.346,220.715 L 166.134,220.674 L 165.652,219.269 L 162.121,214.663 L 166.42,218.734 L 169.952,216.81 L 166.678,219.593 L 167.646,222.849 L 166.761,225.327 L 162.333,238.201 L 162.659,239.948 L 171.197,247.637 L 164.052,256.628 L 173.258,262.168 C 187.663,250.353 198.304,226.883 199.478,204.557 C 200.575,183.587 188.79,159.564 158.429,157.979 C 127.891,156.374 113.835,179.04 112.735,200.009 Z" stroke-linecap="round" stroke-width="1.318" stroke="none" stroke-linejoin="miter" marker-start="none" marker-end="none" stroke-miterlimit="79.8403193612775" fill="url(#RadialGradient_1)"/>
    <g id="Group_2" fill-rule="nonzero" stroke-linejoin="round" stroke-linecap="round" stroke="#cccccc" stroke-width="0.819" fill="#d8dee7" stroke-miterlimit="79.8403193612775">
     <g id="Group_3">
      <path d="M 21.589,205.348 C 21.168,213.387 21.921,220.814 23.848,227.633 C 25.774,234.452 28.823,240.356 32.996,245.344 C 37.168,250.331 42.398,254.334 48.69,257.351 C 54.98,260.367 62.278,262.094 70.586,262.529 C 73.398,262.676 76.081,262.749 78.634,262.749 C 81.187,262.747 83.714,262.612 86.213,262.34 C 88.713,262.068 91.29,261.598 93.946,260.93 C 96.599,260.264 99.566,259.413 102.845,258.374 C 103.352,253.833 103.187,249.292 102.35,244.746 C 101.514,240.202 100.069,235.725 98.016,231.319 C 95.696,232.004 93.619,232.533 91.785,232.907 C 89.952,233.282 88.224,233.561 86.603,233.744 C 84.982,233.928 83.399,234.012 81.854,233.999 C 80.31,233.985 78.668,233.932 76.925,233.842 C 70.495,233.505 65.268,231.316 61.249,227.276 C 57.228,223.236 55.465,216.529 55.955,207.15 C 56.215,202.191 57.068,198.105 58.512,194.89 C 59.957,191.675 61.768,189.182 63.942,187.414 C 66.117,185.649 68.598,184.436 71.387,183.775 C 74.177,183.116 77.111,182.866 80.193,183.027 C 84.079,183.231 87.444,183.743 90.289,184.564 C 93.134,185.385 96.461,186.634 100.27,188.312 C 102.736,184.814 104.758,180.856 106.335,176.437 C 107.908,172.019 108.848,166.931 109.15,161.168 C 103.112,158.435 97.566,156.598 92.509,155.661 C 87.454,154.724 82.38,154.124 77.289,153.857 C 68.714,153.408 61.078,154.283 54.379,156.485 C 47.68,158.686 41.963,162.047 37.224,166.57 C 32.487,171.09 28.806,176.607 26.18,183.118 C 23.556,189.632 22.025,197.041 21.589,205.348 Z" marker-start="none" marker-end="none"/>
      <path d="M 305.072,170.427 C 302.837,169.505 300.165,168.559 297.059,167.59 C 293.953,166.621 290.643,165.674 287.131,164.753 C 283.618,163.829 279.998,163.069 276.268,162.469 C 272.537,161.87 268.862,161.477 265.245,161.287 C 258.413,160.929 251.821,161.121 245.466,161.863 C 239.114,162.604 233.472,164.492 228.543,167.526 C 223.616,170.559 219.582,175.117 216.441,181.199 C 213.301,187.282 211.456,195.549 210.909,205.999 L 207.833,264.682 C 210.746,265.507 213.636,266.128 216.503,266.547 C 219.369,266.965 222.143,267.245 224.821,267.386 C 227.367,267.519 230.121,267.528 233.082,267.416 C 236.044,267.302 238.948,266.985 241.798,266.462 L 244.726,210.593 C 245.147,202.554 246.775,197.131 249.609,194.323 C 252.444,191.516 256.606,190.257 262.1,190.545 C 264.378,190.664 266.117,190.822 267.315,191.019 C 268.513,191.217 269.377,191.397 269.906,191.558 L 265.915,267.726 C 268.826,268.55 271.717,269.173 274.583,269.591 C 277.45,270.011 280.223,270.29 282.901,270.43 C 285.447,270.563 288.201,270.574 291.162,270.46 C 294.125,270.347 297.03,270.029 299.879,269.506 L 305.072,170.427 Z" marker-start="none" marker-end="none"/>
      <path d="M 353.072,276.93 C 358.966,277.24 364.89,277.045 370.836,276.35 C 376.784,275.654 382.22,273.823 387.146,270.857 C 392.07,267.891 396.198,263.472 399.529,257.602 C 402.858,251.73 404.784,243.837 405.304,233.923 L 408.453,173.832 C 405.004,172.979 401.878,172.379 399.076,172.032 C 396.273,171.682 393.799,171.452 391.654,171.34 C 389.378,171.219 386.827,171.188 384.003,171.242 C 381.178,171.295 378.008,171.565 374.489,172.052 L 371.529,228.525 C 371.157,235.626 369.55,240.648 366.708,243.588 C 363.867,246.529 359.701,247.856 354.208,247.568 C 352.734,247.49 351.167,247.273 349.505,246.918 C 347.846,246.563 346.821,246.24 346.434,245.951 L 350.372,170.787 C 346.924,169.936 343.798,169.336 340.995,168.986 C 338.193,168.639 335.718,168.407 333.575,168.296 C 331.298,168.176 328.747,168.143 325.922,168.196 C 323.097,168.25 319.927,168.521 316.407,169.007 L 311.237,267.684 C 315.841,269.537 321.454,271.411 328.072,273.302 C 334.691,275.195 343.023,276.403 353.072,276.93 Z" marker-start="none" marker-end="none"/>
      <path d="M 441.06,251.112 L 411.317,249.553 C 410.507,252.198 409.939,254.687 409.616,257.021 C 409.291,259.356 409.074,261.594 408.961,263.738 C 408.849,265.881 408.834,268.097 408.915,270.386 C 408.997,272.673 409.303,275.176 409.832,277.89 L 503.283,282.788 C 504.094,280.143 504.657,277.687 504.98,275.42 C 505.3,273.153 505.516,270.948 505.629,268.804 C 505.741,266.66 505.758,264.412 505.68,262.056 C 505.602,259.7 505.297,257.166 504.769,254.451 L 475.025,252.892 L 478.974,177.528 C 475.519,176.81 472.392,176.243 469.592,175.828 C 466.792,175.413 464.254,175.144 461.976,175.025 C 459.698,174.906 457.145,174.907 454.318,175.027 C 451.491,175.147 448.387,175.388 445.01,175.747 L 441.06,251.112 Z" marker-start="none" marker-end="none"/>
      <path d="M 541.977,221.94 C 543.74,216.525 546.523,212.775 550.326,210.69 C 554.13,208.605 559.047,207.721 565.077,208.037 C 568.962,208.241 573.291,208.938 578.066,210.129 C 582.84,211.319 587.522,212.976 592.113,215.098 C 594.171,211.712 596.03,207.645 597.69,202.895 C 599.349,198.145 600.383,193.161 600.791,187.944 C 589.098,182.897 577.022,180.048 564.563,179.395 C 554.916,178.889 546.572,179.795 539.532,182.113 C 532.491,184.43 526.669,187.854 522.066,192.382 C 517.462,196.91 513.949,202.402 511.529,208.858 C 509.108,215.314 507.694,222.428 507.286,230.198 C 506.886,237.835 507.583,245.061 509.375,251.872 C 511.168,258.682 514.078,264.679 518.106,269.861 C 522.134,275.043 527.287,279.243 533.567,282.46 C 539.847,285.678 547.275,287.512 555.849,287.961 C 562.95,288.333 569.345,287.458 575.03,285.339 C 580.717,283.219 585.614,280.15 589.72,276.133 C 593.827,272.117 597.075,267.181 599.465,261.328 C 601.852,255.474 603.232,249.064 603.595,242.099 C 603.784,238.48 603.789,235.222 603.604,232.325 C 603.42,229.426 603.243,227.033 603.074,225.142 L 541.977,221.94 Z M 555.981,262.374 C 551.693,262.151 548.08,260.617 545.138,257.776 C 542.197,254.935 540.606,250.687 540.366,245.031 L 572.521,246.718 C 572.007,251.391 570.362,255.235 567.583,258.247 C 564.805,261.259 560.939,262.635 555.981,262.374 Z" marker-start="none" marker-end="none"/>
      <path d="M 611.275,288.044 C 617.529,289.178 624.025,290.191 630.764,291.082 C 637.501,291.972 643.885,292.575 649.913,292.89 C 666.125,293.741 678.445,291.329 686.868,285.66 C 695.294,279.988 699.795,271.658 700.37,260.672 C 700.589,256.519 700.309,252.877 699.533,249.745 C 698.756,246.615 697.756,243.909 696.532,241.628 C 695.308,239.347 693.994,237.497 692.591,236.081 C 691.188,234.665 690.038,233.53 689.142,232.676 L 714.348,190.065 C 711.697,189.39 708.737,188.831 705.469,188.391 C 702.201,187.951 699.026,187.652 695.944,187.488 C 692.191,187.291 688.567,187.237 685.07,187.323 C 681.574,187.408 678.671,187.659 676.366,188.076 L 651.572,234.334 L 654.301,236.09 C 658.851,239.016 661.917,242.032 663.5,245.137 C 665.085,248.242 665.785,251.537 665.602,255.022 C 665.42,258.504 664.232,261.296 662.039,263.4 C 659.847,265.501 656.473,266.432 651.918,266.194 C 649.372,266.06 647.435,265.824 646.11,265.485 L 650.25,186.504 C 646.801,185.652 643.675,185.052 640.873,184.704 C 638.07,184.355 635.596,184.124 633.453,184.012 C 631.175,183.892 628.692,183.862 626,183.925 C 623.31,183.985 620.206,184.259 616.688,184.745 L 611.275,288.044 Z" marker-start="none" marker-end="none"/>
     </g>
    </g>
   </g>
   <g id="Layer_1"/>
  </g>
 </g>
</svg>
