<svg xmlns="http://www.w3.org/2000/svg" viewBox="0 0 220 145"><path d="M105.64,135.37V76.16h54.43L169,80a34.7,34.7,0,0,1,6.5,4.09,14.64,14.64,0,0,1,3.88,5.24,19.73,19.73,0,0,1,1.26,7.34,16.66,16.66,0,0,1-6.19,13.82,28.61,28.61,0,0,1-18.76,5.14,55,55,0,0,1-13.41-1.37c-3.57-.94-7.13-2-10.48-3.14-.85,2.2-1.58,4.51-2.31,6.82a42.46,42.46,0,0,0-1.37,6.91l6.29,2a43.81,43.81,0,0,0,6.39,1.47,66.65,66.65,0,0,0,7,.94h8.59a46.08,46.08,0,0,0,30.51-9.11,30.77,30.77,0,0,0,10.79-25A33.84,33.84,0,0,0,196,83.81a24.37,24.37,0,0,0-4.48-7.65H220v59.21a9.74,9.74,0,0,1-9.65,9.63H115.29A9.64,9.64,0,0,1,105.64,135.37Zm-72.1-5.77A51.55,51.55,0,0,1,15,116.4,57,57,0,0,1,3.77,96.08,83.26,83.26,0,0,1,0,70.61,79.53,79.53,0,0,1,4,45.15,59.17,59.17,0,0,1,15.41,24.73,52.29,52.29,0,0,1,33.76,11.31,62.14,62.14,0,0,1,58.58,6.49a114.13,114.13,0,0,1,14.78,1,76.48,76.48,0,0,1,15.09,4.29,40.61,40.61,0,0,1-2.09,10.48c-1.16,3.25-2.42,6.61-3.77,9.85a69.64,69.64,0,0,0-10.48-2.83,55.77,55.77,0,0,0-11-.94A31.46,31.46,0,0,0,35.74,38.87a49.36,49.36,0,0,0-8.8,31.43q0,41.91,35.52,41.91a70.29,70.29,0,0,0,11.22-.84,84.58,84.58,0,0,0,11-2.62,68.26,68.26,0,0,1,3.68,9.85,59.54,59.54,0,0,1,2.2,10.48,91.8,91.8,0,0,1-16,4.29,118.25,118.25,0,0,1-15.4.95A64.29,64.29,0,0,1,33.54,129.6Zm72.1-68.93v-51A9.64,9.64,0,0,1,115.29,0h95.17A9.75,9.75,0,0,1,220,9.63v51H163.6a47.24,47.24,0,0,1-6.08-2.83,22.65,22.65,0,0,1-5.13-3.35A17.42,17.42,0,0,1,149,50a11.36,11.36,0,0,1-1.37-5.65,13.84,13.84,0,0,1,5.25-11.74,24.1,24.1,0,0,1,14.77-3.88,63.08,63.08,0,0,1,12,.95,77.15,77.15,0,0,1,9.53,2.82,47.06,47.06,0,0,0,3.35-12.67,70.87,70.87,0,0,0-11.63-3.15A84.49,84.49,0,0,0,167,15.51a40.8,40.8,0,0,0-26.62,7.85,26.85,26.85,0,0,0-9.44,21.79,28.05,28.05,0,0,0,1.57,10.48,22.71,22.71,0,0,0,2.42,5Z" style="fill:#fff"/></svg>