<?xml version="1.0" standalone="no"?>
<!DOCTYPE svg PUBLIC "-//W3C//DTD SVG 20010904//EN"
 "http://www.w3.org/TR/2001/REC-SVG-20010904/DTD/svg10.dtd">
<svg version="1.0" xmlns="http://www.w3.org/2000/svg"
 width="310.000000pt" height="310.000000pt" viewBox="0 0 310.000000 310.000000"
 preserveAspectRatio="xMidYMid meet">
<metadata>
Created by potrace 1.15, written by Peter Selinger 2001-2017
</metadata>
<g transform="translate(0.000000,310.000000) scale(0.100000,-0.100000)"
fill="#000000" stroke="none">
<path d="M1620 2503 c-19 -8 -42 -32 -63 -65 -15 -24 -17 -66 -17 -398 l0
-370 184 0 c106 0 187 4 191 10 3 5 -5 31 -17 57 -20 41 -23 64 -23 164 0 114
3 126 42 201 18 35 77 98 92 98 6 0 11 4 11 8 0 9 69 42 88 42 5 0 12 5 14 11
2 5 38 13 80 16 43 3 75 10 72 14 -3 5 40 9 96 9 65 0 99 -4 95 -10 -4 -6 14
-10 47 -10 29 0 77 -3 106 -6 46 -6 52 -10 52 -30 0 -12 -4 -26 -10 -29 -5 -3
-10 -23 -10 -43 0 -73 -11 -112 -31 -112 -11 0 -19 4 -19 9 0 8 -113 27 -234
38 -32 2 -68 0 -80 -5 -11 -6 -42 -13 -68 -17 -27 -3 -48 -10 -48 -16 0 -5 -5
-9 -10 -9 -14 0 -44 -30 -59 -57 -17 -33 -13 -111 7 -146 21 -39 37 -57 51
-57 6 0 11 -4 11 -8 0 -5 18 -17 40 -28 22 -10 40 -22 40 -26 0 -3 14 -9 30
-13 17 -4 30 -11 30 -16 0 -5 8 -9 18 -9 9 0 30 -7 46 -15 23 -12 83 -15 342
-15 l314 0 0 383 0 382 -31 35 -31 35 -666 2 c-367 1 -674 -1 -682 -4z"/>
<path d="M758 2458 c-54 -6 -98 -14 -98 -18 0 -5 -18 -11 -40 -15 -22 -4 -42
-11 -46 -16 -3 -5 -14 -9 -25 -9 -10 0 -19 -4 -19 -9 0 -5 -14 -12 -30 -16
-17 -4 -30 -10 -30 -14 0 -4 -15 -15 -32 -26 -18 -10 -38 -24 -45 -29 -6 -6
-26 -22 -44 -36 -18 -14 -40 -33 -49 -43 -8 -11 -27 -33 -42 -50 -15 -18 -30
-40 -34 -49 -3 -10 -10 -18 -15 -18 -5 0 -9 -7 -9 -15 0 -8 -4 -15 -8 -15 -8
0 -42 -69 -42 -84 0 -8 -25 -67 -40 -97 -5 -9 -12 -44 -16 -78 -4 -34 -11 -64
-15 -67 -12 -7 -12 -434 0 -434 5 0 12 -29 16 -65 3 -36 11 -65 16 -65 5 0 9
-7 9 -16 0 -24 33 -114 42 -114 5 0 8 -7 8 -17 0 -20 58 -113 71 -113 5 0 9
-6 9 -14 0 -17 132 -146 150 -146 3 0 15 -8 26 -18 25 -23 146 -82 167 -82 9
0 17 -4 17 -8 0 -4 33 -14 73 -22 143 -28 657 -12 657 21 0 4 18 10 40 14 22
4 42 11 46 16 3 5 14 9 24 9 32 0 53 43 46 92 -3 24 -9 71 -12 106 -4 34 -10
62 -14 62 -4 0 -11 25 -15 55 -3 30 -11 55 -16 55 -5 0 -9 9 -9 19 0 11 -4 22
-9 25 -5 3 -12 18 -16 33 -13 55 -74 114 -87 86 -4 -11 -99 -43 -125 -43 -12
0 -23 -5 -25 -11 -5 -15 -267 -17 -276 -2 -4 5 -19 13 -34 16 -31 8 -118 90
-118 112 0 8 -4 15 -10 15 -5 0 -10 8 -10 18 0 10 -6 24 -12 30 -19 19 -18
319 1 358 42 89 75 133 99 134 6 0 12 3 12 8 0 13 79 42 115 42 19 0 35 5 35
10 0 6 22 10 49 10 28 0 53 -4 56 -10 3 -5 27 -10 51 -10 51 0 174 -30 174
-42 0 -13 50 -9 63 5 20 21 34 51 41 85 4 17 12 34 17 37 5 4 9 17 9 31 0 13
4 24 9 24 9 0 29 121 38 228 4 51 1 67 -13 83 -9 10 -23 19 -31 19 -13 0 -24
5 -71 29 -12 6 -42 14 -67 18 -24 3 -43 9 -40 13 12 19 -360 33 -497 18z"/>
<path d="M1547 1523 c-4 -3 -7 -192 -7 -420 0 -447 -2 -433 54 -488 20 -20 34
-20 697 -20 l677 0 31 35 31 35 0 433 0 432 -187 -2 c-175 -3 -188 -4 -191
-22 -2 -10 0 -21 5 -25 15 -11 43 -60 43 -76 0 -8 4 -15 9 -15 5 0 15 -39 22
-86 10 -67 10 -101 1 -161 -7 -42 -16 -81 -21 -87 -4 -6 -11 -23 -15 -38 -3
-16 -11 -28 -16 -28 -6 0 -10 -6 -10 -13 0 -7 -16 -26 -36 -42 -19 -17 -41
-36 -49 -42 -7 -7 -17 -13 -20 -13 -8 0 -70 -26 -98 -41 -10 -6 -47 -13 -83
-16 -35 -3 -64 -10 -64 -14 0 -5 -63 -9 -141 -9 -77 0 -138 4 -135 9 3 4 -30
11 -72 14 -105 8 -128 21 -124 70 2 20 7 37 11 37 5 0 11 28 15 62 7 68 11 77
28 60 7 -7 22 -12 34 -12 12 0 24 -6 26 -12 4 -10 58 -13 228 -13 170 0 224 3
227 13 3 6 9 12 15 12 5 0 24 14 41 32 31 30 32 35 32 111 0 55 -4 82 -12 85
-7 2 -13 8 -13 14 0 12 -76 88 -89 88 -5 0 -16 6 -23 13 -7 6 -32 21 -55 32
-24 11 -43 23 -43 26 0 4 -16 10 -35 13 -19 4 -35 10 -35 14 0 5 -20 16 -45
26 -25 11 -45 23 -45 28 0 9 -553 11 -563 1z"/>
</g>
</svg>
